<svg width="303" height="51" viewBox="0 0 303 51" fill="none" xmlns="http://www.w3.org/2000/svg">
<path d="M33.1195 28.8V34.725H40.3405C40.5616 34.725 40.709 34.875 40.709 35.025L38.4984 39.225C38.4984 39.375 38.3511 39.525 38.13 39.525H33.1195V45.45H45.3511C45.5721 45.45 45.7195 45.6 45.7195 45.75V50.025C45.7195 50.175 45.5721 50.325 45.3511 50.325H28.5511C28.33 50.325 28.1826 50.175 28.1826 50.025V24.3C28.1826 24.15 28.33 24 28.5511 24H45.0563C45.2774 24 45.4248 24.15 45.4248 24.3L43.2142 28.5C43.2142 28.65 43.0669 28.8 42.8458 28.8H33.1195Z" fill="#4CBF17"/>
<path d="M60.9721 28.2C60.9721 28.35 60.8248 28.5 60.6037 28.5H57.8774V49.95C57.8774 50.1 57.73 50.25 57.509 50.25H53.309C53.0879 50.25 52.9405 50.1 52.9405 49.95V28.5H48.0037C47.7827 28.5 47.6353 28.35 47.6353 28.2V24.3C47.6353 24.15 47.7827 24 48.0037 24H62.8142C63.0353 24 63.1827 24.15 63.1827 24.3L60.9721 28.2Z" fill="#4CBF17"/>
<path d="M66.3511 24.3C66.3511 24.15 66.4984 24 66.7195 24H70.9195C71.1405 24 71.2879 24.15 71.2879 24.3V49.95C71.2879 50.1 71.1405 50.25 70.9195 50.25H66.7195C66.4984 50.25 66.3511 50.1 66.3511 49.95V24.3Z" fill="#4CBF17"/>
<path d="M87.7932 28.2C87.7932 28.35 87.6458 28.5 87.4248 28.5H84.6985V49.95C84.6985 50.1 84.5511 50.25 84.33 50.25H80.13C79.909 50.25 79.7616 50.1 79.7616 49.95V28.5H74.8248C74.6037 28.5 74.4564 28.35 74.4564 28.2V24.3C74.4564 24.15 74.6037 24 74.8248 24H89.6353C89.8564 24 90.0037 24.15 90.0037 24.3L87.7932 28.2Z" fill="#4CBF17"/>
<path fill-rule="evenodd" clip-rule="evenodd" d="M7.03529 24H15.4353C15.4353 24 24.2037 24 24.2037 31.8C24.2037 39.6 15.4353 39.6 15.4353 39.6H11.6037V49.95C11.6037 50.1 11.4563 50.25 11.2353 50.25H7.03529C6.81424 50.25 6.66687 50.1 6.66687 49.95V24.3C6.66687 24.15 6.81424 24 7.03529 24ZM11.6774 34.95H15.509C16.1721 34.95 19.3406 34.875 19.3406 31.95C19.3406 29.025 16.0984 28.875 15.509 28.875H11.6774V34.95Z" fill="#4CBF17"/>
<path d="M133.063 45.3984C133.284 45.3984 133.432 45.5458 133.432 45.6932V49.8932C133.432 50.0405 133.284 50.1879 133.063 50.1879H119.494C119.273 50.1879 119.126 50.0405 119.126 49.8932V24.6932C119.126 24.5458 119.273 24.3984 119.494 24.3984H123.771C123.919 24.3984 124.066 24.5458 124.066 24.6932V45.3984H133.063Z" fill="#4D4D4D"/>
<path fill-rule="evenodd" clip-rule="evenodd" d="M141.322 47.2405H149.728L150.834 49.9668C150.908 50.0405 151.056 50.1142 151.129 50.1142H155.701C155.996 50.1142 156.144 49.9668 155.996 49.7458L145.894 23.8089C145.82 23.5142 145.378 23.5142 145.23 23.8089L135.054 49.7458C134.906 49.9668 135.054 50.1142 135.349 50.1142H139.921C140.142 50.1142 140.289 50.1142 140.289 49.9668L141.322 47.2405ZM148.18 42.8932H142.944L145.599 35.1563L148.18 42.8932Z" fill="#4D4D4D"/>
<path d="M176.496 43.3355C176.644 43.2619 176.865 43.2619 177.012 43.3355L179.962 46.3566C180.11 46.4303 180.11 46.725 179.962 46.7987C177.676 49.1566 174.432 50.5566 170.818 50.5566C163.665 50.5566 157.766 45.3987 157.766 37.2934C157.766 29.4829 163.223 24.0303 170.818 24.0303C174.432 24.0303 177.676 25.504 179.962 27.8619C180.11 27.9355 180.11 28.2303 179.962 28.304L177.012 31.2513C176.865 31.3987 176.644 31.3987 176.496 31.2513C175.021 29.7776 173.03 28.8934 170.818 28.8934C165.804 28.8934 162.78 32.504 162.78 37.3671C162.78 42.5987 166.394 45.8408 170.818 45.8408C173.03 45.7671 175.021 44.8092 176.496 43.3355Z" fill="#4D4D4D"/>
<path d="M189.18 29.0405V34.8616H196.406C196.554 34.8616 196.701 35.009 196.701 35.1563L194.489 39.2826C194.489 39.43 194.342 39.5774 194.194 39.5774H189.18V45.3984H201.421C201.642 45.3984 201.789 45.5458 201.789 45.6932V49.8932C201.789 50.0405 201.642 50.1879 201.421 50.1879H184.608C184.387 50.1879 184.239 50.0405 184.239 49.8932V24.6932C184.239 24.5458 184.387 24.3984 184.608 24.3984H201.126C201.347 24.3984 201.494 24.5458 201.494 24.6932L199.282 28.8195C199.282 28.9669 199.135 29.1142 198.914 29.1142H189.18V29.0405Z" fill="#4D4D4D"/>
<path d="M234.014 49.8936C234.014 50.041 233.867 50.1884 233.646 50.1884H229.442C229.221 50.1884 229.074 50.041 229.074 49.8936V35.7462L222.511 49.0094C222.511 49.0831 222.289 49.1568 222.216 49.1568H218.234C218.16 49.1568 217.939 49.0831 217.865 49.0094L210.86 35.4515V49.9673C210.86 50.1147 210.712 50.262 210.491 50.262H206.214C205.993 50.262 205.919 50.1147 205.919 49.9673V24.6199C205.919 24.4726 205.993 24.3252 206.214 24.3252H210.565C210.712 24.3252 210.86 24.3989 210.933 24.4726L220.225 43.4094L229.074 24.4726C229.074 24.3989 229.295 24.3252 229.442 24.3252H233.719C233.941 24.3252 234.088 24.4726 234.088 24.6199V49.8936H234.014Z" fill="#4D4D4D"/>
<path d="M244.633 29.0405V34.8616H251.86C252.007 34.8616 252.155 35.009 252.155 35.1563L249.942 39.2826C249.942 39.43 249.795 39.5774 249.647 39.5774H244.633V45.3984H256.874C257.095 45.3984 257.243 45.5458 257.243 45.6932V49.8932C257.243 50.0405 257.095 50.1879 256.874 50.1879H240.061C239.84 50.1879 239.692 50.0405 239.692 49.8932V24.6932C239.692 24.5458 239.84 24.3984 240.061 24.3984H256.579C256.8 24.3984 256.948 24.5458 256.948 24.6932L254.735 28.8195C254.735 28.9669 254.588 29.1142 254.367 29.1142H244.633V29.0405Z" fill="#4D4D4D"/>
<path d="M283.126 49.8932C283.126 50.0405 282.978 50.1879 282.757 50.1879H278.48C278.406 50.1879 278.185 50.1879 278.185 50.0405L266.313 33.0195V49.8195C266.313 49.9669 266.165 50.1142 265.944 50.1142H261.741C261.593 50.1142 261.446 49.9669 261.446 49.8195V24.6932C261.446 24.5458 261.593 24.3984 261.741 24.3984H266.018C266.092 24.3984 266.239 24.3984 266.313 24.4721L278.259 41.4932V24.6932C278.259 24.5458 278.406 24.3984 278.628 24.3984H282.831C283.052 24.3984 283.2 24.5458 283.2 24.6932V49.8932H283.126Z" fill="#4D4D4D"/>
<path d="M299.865 28.5248C299.865 28.6721 299.717 28.8195 299.496 28.8195H296.768V49.8932C296.768 50.0405 296.62 50.1879 296.399 50.1879H292.196C291.975 50.1879 291.827 50.0405 291.827 49.8932V28.8195H286.887C286.665 28.8195 286.518 28.6721 286.518 28.5248V24.6932C286.518 24.5458 286.665 24.3984 286.887 24.3984H301.708C301.93 24.3984 302.077 24.5458 302.077 24.6932L299.865 28.5248Z" fill="#4D4D4D"/>
<path fill-rule="evenodd" clip-rule="evenodd" d="M106.516 39.8721C107.18 39.8721 115.291 39.7984 115.291 32.209C115.291 24.5458 107.548 24.3984 106.59 24.3984H98.1833C98.0358 24.3984 97.8884 24.5458 97.8884 24.6932V50.0405C97.8884 50.1879 98.0358 50.3353 98.1833 50.3353H102.387C102.608 50.3353 102.682 50.1879 102.682 50.0405V39.8721H106.516ZM106.516 29.1879C107.106 29.1879 110.351 29.3353 110.351 32.209C110.351 34.8171 107.599 35.0598 106.686 35.1403C106.619 35.1462 106.562 35.1513 106.516 35.1563H102.682V29.1879H106.516Z" fill="#4D4D4D"/>
<path fill-rule="evenodd" clip-rule="evenodd" d="M25.8111 0.975C28.0815 0.975 29.2534 2.175 29.2534 4.575C29.3178 6.28929 28.6463 8.23544 27.7366 10.8721C27.6115 11.2346 27.4819 11.6102 27.3491 12C26.1773 15.15 23.7604 21.975 23.7604 23.625C23.7604 24.825 24.566 25.5 25.5914 25.5C25.8844 25.5 26.1041 25.725 26.1041 26.025C26.1041 26.325 25.8844 26.55 25.5914 26.55C23.7604 26.55 22.6618 25.35 22.6618 23.625C22.6618 21.7019 25.0836 15.0376 26.2745 11.7607L26.3238 11.625C26.4356 11.3122 26.5443 11.0102 26.6495 10.7181C27.578 8.13951 28.228 6.33424 28.228 4.65C28.228 2.85 27.3491 2.1 25.8111 2.1C23.8336 2.1 21.7829 4.425 20.5379 6.45C18.7801 12.45 18.4872 13.425 16.0703 20.55C15.997 20.775 15.7773 20.925 15.5576 20.925C15.1182 20.925 14.9717 20.55 15.0449 20.175C16.5829 15.825 18.121 10.95 19.366 6.75C19.5858 5.775 19.7322 5.025 19.7322 4.35C19.7322 3 19.2196 1.875 18.0477 1.875C15.8858 1.875 13.1566 5.86873 11.116 8.8548C11.0827 8.90347 11.0496 8.95188 11.0167 9L9.03928 15.225C7.64773 19.65 6.91534 21.15 5.15759 21.15C4.20548 21.15 3.76604 20.4 3.76604 19.425C3.76604 17.925 5.15759 15.525 7.50125 12.45C7.55008 12.375 7.83489 11.9167 8.19565 11.3362C8.91719 10.175 9.94257 8.525 9.99139 8.475L12.0421 2.025C11.9675 2.08105 11.8921 2.13771 11.8162 2.19487C9.65549 3.82027 6.95732 5.85 3.98576 5.85C1.56886 5.85 -0.262127 4.125 0.0308304 1.5C0.10407 1.2 0.323788 0.975 0.616746 1.05C0.982943 1.05 1.20266 1.35 1.20266 1.65C1.20266 3.675 2.30125 4.65 4.059 4.725C6.54914 4.725 9.33224 2.7 11.5294 1.05C11.7724 0.842652 12.0378 0.658234 12.2884 0.484068C12.491 0.343244 12.684 0.209122 12.8477 0.075C12.921 0 13.0675 0 13.1407 0C13.6534 0 13.7266 0.45 13.6534 0.75L12.1886 5.4C14.3125 2.625 15.9238 0.75 18.121 0.75C19.8055 0.75 20.8308 2.325 20.8308 4.2C22.2224 2.4 23.9801 0.975 25.8111 0.975ZM5.15759 19.95C6.18294 19.95 6.76886 18.6 7.94069 14.85L8.67308 12.75C8.65239 12.7712 8.63755 12.7864 8.62359 12.8024C8.58815 12.843 8.55846 12.8886 8.45337 13.05C7.83808 13.9856 7.30348 14.7559 6.84837 15.4117C5.51577 17.3318 4.86463 18.2701 4.86463 19.5C4.86463 19.8 4.93787 19.95 5.15759 19.95Z" fill="#4CBF17"/>
<path fill-rule="evenodd" clip-rule="evenodd" d="M50.2365 14.5873C50.2731 14.6061 50.3097 14.6248 50.3463 14.6248C50.5661 14.6998 50.7125 14.9248 50.7125 15.2248C50.7125 15.2623 50.6942 15.2998 50.6759 15.3373C50.6576 15.3748 50.6393 15.4123 50.6393 15.4498C48.8815 19.5748 47.6365 21.1498 45.8055 21.1498C44.5604 21.1498 43.9013 20.2498 43.9013 18.8998C43.9013 17.6055 44.4296 16.1566 44.9499 14.7296C45.4547 13.3453 45.952 11.9816 45.952 10.7998C45.952 9.9748 45.5858 9.3748 44.5604 9.3748C42.9491 9.3748 40.9717 13.0498 40.0928 15.3748L38.2618 20.7748C38.1153 21.0748 37.8224 21.2248 37.5294 21.1498C37.2365 20.9998 37.09 20.6998 37.1632 20.3998C37.2197 20.2265 37.2869 20.042 37.3567 19.8507C37.4681 19.5454 37.5858 19.2226 37.6759 18.8998C37.1632 19.2748 36.6506 19.4248 36.0646 19.4248C35.259 19.4248 34.5999 19.1998 34.0139 18.6748C33.0618 20.0248 31.6703 21.1498 30.4252 21.1498C28.6675 21.1498 28.0815 19.9498 28.0815 18.3748C28.0815 15.2248 29.4731 12.5998 30.352 11.0998C31.4506 9.2248 32.7689 8.2498 34.0872 8.2498C35.8449 8.3248 36.7238 9.5248 36.7238 11.1748C36.7238 12.8998 35.9182 15.5998 34.6731 17.6998C34.9661 18.0748 35.4055 18.2998 35.9914 18.2998C37.1632 18.2998 38.0421 17.2498 38.9942 14.9998C38.9942 14.9248 39.0675 14.8498 39.0675 14.8498C39.6564 13.2919 40.1795 11.7677 40.6369 10.435C40.8621 9.77888 41.0713 9.16919 41.2646 8.6248C41.3379 8.3998 41.5576 8.2498 41.7773 8.2498C42.1435 8.2498 42.4365 8.6248 42.29 8.9998L42.0703 9.5248C42.8759 8.6998 43.6815 8.1748 44.5604 8.1748C46.4646 8.1748 47.0506 9.2998 47.0506 10.7248C47.0506 12.0131 46.4949 13.5859 45.9621 15.0941C45.4713 16.4834 44.9999 17.8179 44.9999 18.8248C44.9999 19.5748 45.2196 19.9498 45.8055 19.9498C47.0506 19.9498 48.0027 18.5248 49.6139 14.9248C49.7604 14.6998 49.9069 14.5498 50.1266 14.5498C50.1632 14.5498 50.1999 14.5686 50.2365 14.5873ZM33.2815 14.9998C33.3548 14.6998 33.5745 14.5498 33.8675 14.5498C34.3069 14.5498 34.5266 14.9248 34.3069 15.2998C34.2337 15.5248 34.2337 15.6748 34.2337 15.8998V15.8998C35.0393 14.2498 35.552 12.3748 35.552 11.0998C35.552 9.9748 34.8928 9.3748 34.0139 9.3748C33.0618 9.3748 32.1097 10.3498 31.3041 11.6998C30.5717 12.8998 29.1801 15.5248 29.1801 18.2998C29.1801 19.2748 29.4731 19.9498 30.352 19.9498C31.3773 19.9498 32.4759 18.8248 33.3548 17.5498C33.0618 16.8748 33.0618 15.6748 33.2815 14.9998Z" fill="#4CBF17"/>
</svg>
