<svg width="236" height="144" viewBox="0 0 236 144" fill="none" xmlns="http://www.w3.org/2000/svg">
  <path d="M231.842 2.16016C231.326 1.83616 230.731 1.66296 230.122 1.66016C229.584 1.66173 229.055 1.798 228.584 2.05652C228.112 2.31505 227.713 2.6876 227.422 3.14016L201.622 43.6602L201.502 43.8202C200.102 45.5555 198.332 46.9567 196.322 47.922C194.312 48.8873 192.112 49.3922 189.882 49.4002C186.181 49.4008 182.614 48.0167 179.882 45.5202C173.882 40.0602 165.542 32.3802 159.882 26.9002C156.949 23.8536 152.93 22.0919 148.702 22.0002C147.033 22.011 145.376 22.267 143.782 22.7602C140.073 23.9228 136.807 26.1906 134.422 29.2602L124.422 41.8602H132.602L139.442 33.2402C141.02 31.1844 143.191 29.6626 145.662 28.8802C146.633 28.5751 147.644 28.42 148.662 28.4202C149.937 28.4405 151.195 28.7185 152.36 29.2375C153.526 29.7564 154.574 30.5057 155.442 31.4402C161.142 37.0002 169.442 44.7202 175.562 50.2202C177.744 52.203 180.314 53.7113 183.11 54.6494C185.905 55.5874 188.865 55.9349 191.801 55.6699C194.738 55.4048 197.587 54.5329 200.169 53.1094C202.752 51.6859 205.01 49.7418 206.802 47.4002L206.942 47.1802L232.822 6.58016C233.273 5.86271 233.423 4.9963 233.24 4.16885C233.056 3.3414 232.554 2.61965 231.842 2.16016Z" fill="#5CB130"/>
  <path d="M148.702 22C147.033 22.0108 145.376 22.2669 143.782 22.76C140.073 23.9226 136.807 26.1905 134.422 29.26L124.422 41.86H132.602L142.602 29.32C143.734 27.695 145.225 26.352 146.959 25.3949C148.693 24.4378 150.623 23.8921 152.602 23.8C153.739 23.7699 154.876 23.8368 156.002 24C153.781 22.7161 151.267 22.0272 148.702 22Z" fill="url(#paint0_linear)"/>
  <path d="M73.2809 107.76L56.1609 130L56.0409 130.12C54.7001 131.517 53.0874 132.624 51.3022 133.374C49.517 134.124 47.5971 134.5 45.6609 134.48C45.3012 134.5 44.9407 134.5 44.5809 134.48C41.0872 134.181 37.8326 132.583 35.4609 130L26.2009 120.4C24.691 118.527 22.7897 117.007 20.6305 115.946C18.4712 114.886 16.1061 114.31 13.7009 114.26C12.7839 114.257 11.8679 114.324 10.9609 114.46C11.0846 114.577 11.1983 114.704 11.3009 114.84C16.5009 120.84 24.1809 129.32 29.7009 135.34C33.4084 139.371 38.486 141.874 43.9409 142.36C44.5009 142.36 45.0609 142.36 45.6209 142.36C48.7006 142.369 51.7483 141.735 54.5689 140.499C57.3896 139.263 59.9209 137.451 62.0009 135.18L62.2209 134.92L83.1809 107.76H73.2809Z" fill="#5CB130"/>
  <path d="M86.4006 51.5597V57.2797H93.4606C93.5421 57.2796 93.6206 57.3105 93.6801 57.3663C93.7396 57.422 93.7755 57.4984 93.7806 57.5797L91.6006 61.5797C91.5955 61.6611 91.5596 61.7374 91.5001 61.7932C91.4406 61.8489 91.3621 61.8799 91.2806 61.8797H86.4006V67.5997H98.4006C98.4879 67.5881 98.5763 67.6108 98.6471 67.663C98.718 67.7153 98.7659 67.7929 98.7806 67.8797V71.9997C98.7659 72.0865 98.718 72.1642 98.6471 72.2164C98.5763 72.2686 98.4879 72.2913 98.4006 72.2797H82.0006C81.9586 72.2853 81.9158 72.2825 81.8748 72.2714C81.8338 72.2603 81.7955 72.2412 81.762 72.2151C81.7285 72.189 81.7005 72.1566 81.6797 72.1196C81.6588 72.0826 81.6456 72.0419 81.6406 71.9997V47.2597C81.6507 47.1731 81.6937 47.0936 81.7607 47.0378C81.8277 46.982 81.9136 46.954 82.0006 46.9597H98.0006C98.0877 46.954 98.1736 46.982 98.2406 47.0378C98.3076 47.0936 98.3506 47.1731 98.3606 47.2597L96.2006 51.2597C96.186 51.3427 96.1411 51.4173 96.0745 51.469C96.008 51.5208 95.9247 51.546 95.8406 51.5397L86.4006 51.5597Z" fill="#5CB130"/>
  <path d="M113.76 51.0197C113.745 51.1045 113.701 51.1813 113.635 51.2363C113.569 51.2913 113.486 51.3209 113.4 51.3197H110.72V71.9997C110.705 72.0827 110.66 72.1573 110.594 72.209C110.527 72.2608 110.444 72.286 110.36 72.2797H106.36C106.318 72.2853 106.275 72.2825 106.234 72.2714C106.193 72.2603 106.155 72.2412 106.121 72.2151C106.088 72.189 106.06 72.1566 106.039 72.1196C106.018 72.0826 106.005 72.0419 106 71.9997V51.3197H101.04C100.954 51.3209 100.87 51.2913 100.804 51.2363C100.738 51.1813 100.694 51.1045 100.68 51.0197V47.2597C100.694 47.175 100.738 47.0981 100.804 47.0431C100.87 46.9881 100.954 46.9585 101.04 46.9597H115.56C115.647 46.954 115.733 46.982 115.8 47.0378C115.867 47.0936 115.91 47.1731 115.92 47.2597L113.76 51.0197Z" fill="#5CB130"/>
  <path d="M119.078 47.2597C119.088 47.1731 119.131 47.0936 119.198 47.0378C119.265 46.982 119.351 46.954 119.438 46.9597H123.438C123.525 46.954 123.611 46.982 123.678 47.0378C123.745 47.0936 123.788 47.1731 123.798 47.2597V71.9997C123.793 72.0419 123.78 72.0826 123.759 72.1196C123.738 72.1566 123.71 72.189 123.677 72.2151C123.643 72.2412 123.605 72.2603 123.564 72.2714C123.523 72.2825 123.48 72.2853 123.438 72.2797H119.438C119.396 72.2853 119.353 72.2825 119.312 72.2714C119.271 72.2603 119.233 72.2412 119.199 72.2151C119.166 72.189 119.138 72.1566 119.117 72.1196C119.096 72.0826 119.083 72.0419 119.078 71.9997V47.2597Z" fill="#5CB130"/>
  <path d="M140.099 51.0197C140.089 51.1064 140.046 51.1858 139.979 51.2416C139.912 51.2975 139.826 51.3254 139.739 51.3197H137.059V71.9997C137.054 72.0419 137.041 72.0826 137.02 72.1196C136.999 72.1566 136.971 72.189 136.938 72.2151C136.904 72.2412 136.866 72.2603 136.825 72.2714C136.784 72.2825 136.741 72.2853 136.699 72.2797H132.699C132.657 72.2853 132.614 72.2825 132.573 72.2714C132.532 72.2603 132.494 72.2412 132.46 72.2151C132.427 72.189 132.399 72.1566 132.378 72.1196C132.357 72.0826 132.344 72.0419 132.339 71.9997V51.3197H127.399C127.312 51.3254 127.226 51.2975 127.159 51.2416C127.092 51.1858 127.049 51.1064 127.039 51.0197V47.2597C127.049 47.1731 127.092 47.0936 127.159 47.0378C127.226 46.982 127.312 46.954 127.399 46.9597H141.999C142.086 46.954 142.172 46.982 142.239 47.0378C142.306 47.0936 142.349 47.1731 142.359 47.2597L140.099 51.0197Z" fill="#5CB130"/>
  <path d="M69.0575 46.961H60.7975C60.7116 46.9598 60.628 46.9894 60.562 47.0444C60.496 47.0994 60.4518 47.1762 60.4375 47.261V72.001C60.4521 72.084 60.4971 72.1586 60.5636 72.2103C60.6301 72.262 60.7135 72.2872 60.7975 72.281H64.9375C64.9796 72.2866 65.0223 72.2837 65.0633 72.2726C65.1043 72.2615 65.1426 72.2424 65.1761 72.2164C65.2096 72.1903 65.2376 72.1578 65.2585 72.1209C65.2793 72.0839 65.2926 72.0431 65.2975 72.001V62.001H69.0575C69.0575 62.001 77.6375 62.001 77.6375 54.481C77.6375 46.961 69.0575 46.961 69.0575 46.961ZM69.0575 57.521H65.3575V51.701H69.1175C69.6975 51.701 72.8775 51.841 72.8775 54.661C72.8775 57.481 69.7775 57.521 69.1175 57.521H69.0575Z" fill="#5CB130"/>
  <path d="M37.2772 97.8809C37.3645 97.8693 37.4528 97.892 37.5237 97.9442C37.5946 97.9964 37.6424 98.0741 37.6572 98.1609V102.281C37.6522 102.326 37.6384 102.369 37.6166 102.408C37.5947 102.448 37.5653 102.482 37.5299 102.51C37.4946 102.538 37.454 102.559 37.4106 102.571C37.3672 102.583 37.3219 102.586 37.2772 102.581H23.9972C23.9525 102.586 23.9071 102.583 23.8637 102.571C23.8204 102.559 23.7798 102.538 23.7444 102.51C23.7091 102.482 23.6796 102.448 23.6578 102.408C23.6359 102.369 23.6221 102.326 23.6172 102.281V77.5409C23.6221 77.4961 23.6359 77.4528 23.6578 77.4134C23.6796 77.374 23.7091 77.3393 23.7444 77.3114C23.7798 77.2835 23.8204 77.2629 23.8637 77.2508C23.9071 77.2387 23.9525 77.2353 23.9972 77.2409H28.1572C28.2387 77.2407 28.3172 77.2717 28.3767 77.3274C28.4361 77.3832 28.4721 77.4595 28.4772 77.5409V97.8809H37.2772Z" fill="#4E4D4D"/>
  <path d="M53.6016 99.7209H45.4016L44.4216 102.401C44.3893 102.457 44.3425 102.503 44.2862 102.535C44.2299 102.566 44.1661 102.582 44.1016 102.581H39.6416C39.3616 102.581 39.2016 102.401 39.3216 102.181L49.2016 76.7009C49.2318 76.6422 49.2777 76.5929 49.3342 76.5585C49.3906 76.5241 49.4555 76.5059 49.5216 76.5059C49.5877 76.5059 49.6525 76.5241 49.7089 76.5585C49.7654 76.5929 49.8113 76.6422 49.8416 76.7009L59.7216 102.181C59.8416 102.401 59.7216 102.581 59.4416 102.581H54.9416C54.8834 102.577 54.8271 102.559 54.778 102.528C54.729 102.496 54.6889 102.452 54.6616 102.401L53.6016 99.7209ZM46.9616 95.4409H52.0016L49.4616 87.8409L46.9616 95.4409Z" fill="#4E4D4D"/>
  <path d="M79.9998 95.8806C80.0742 95.8324 80.161 95.8067 80.2498 95.8067C80.3385 95.8067 80.4253 95.8324 80.4998 95.8806L83.3998 98.8206C83.4328 98.8447 83.4597 98.8763 83.4783 98.9128C83.4968 98.9493 83.5065 98.9897 83.5065 99.0306C83.5065 99.0715 83.4968 99.1119 83.4783 99.1484C83.4597 99.1849 83.4328 99.2165 83.3998 99.2406C81.6016 101.049 79.3035 102.278 76.8012 102.769C74.2989 103.261 71.7067 102.993 69.3581 101.999C67.0095 101.005 65.0119 99.3318 63.6222 97.1936C62.2324 95.0554 61.5142 92.5503 61.5598 90.0006C61.4878 87.4494 62.1826 84.9352 63.5543 82.783C64.926 80.6307 66.9116 78.9392 69.2545 77.9271C71.5975 76.915 74.1901 76.6287 76.6974 77.1053C79.2048 77.5819 81.5115 78.7994 83.3198 80.6006C83.353 80.6268 83.3799 80.6602 83.3984 80.6983C83.4169 80.7364 83.4266 80.7782 83.4266 80.8206C83.4266 80.863 83.4169 80.9048 83.3984 80.9429C83.3799 80.981 83.353 81.0144 83.3198 81.0406L80.4198 84.0006C80.3548 84.0339 80.2828 84.0513 80.2098 84.0513C80.1367 84.0513 80.0647 84.0339 79.9998 84.0006C79.2714 83.2585 78.4033 82.6679 77.4456 82.2629C76.4879 81.8579 75.4596 81.6464 74.4198 81.6406C69.5398 81.6406 66.5798 85.1606 66.5798 89.9806C66.5052 91.0519 66.6532 92.127 67.0144 93.1382C67.3756 94.1495 67.9423 95.075 68.6788 95.8565C69.4152 96.6381 70.3055 97.2587 71.2935 97.6793C72.2815 98.0999 73.346 98.3115 74.4198 98.3006C75.4638 98.287 76.4947 98.0661 77.4527 97.6507C78.4106 97.2352 79.2764 96.6335 79.9998 95.8806Z" fill="#4E4D4D"/>
  <path d="M92.3634 81.8408V87.5609H99.4234C99.5018 87.5602 99.5777 87.5884 99.6367 87.64C99.6957 87.6916 99.7337 87.7631 99.7434 87.8409L97.5834 91.8409C97.5784 91.9222 97.5424 91.9986 97.4829 92.0543C97.4235 92.1101 97.345 92.141 97.2634 92.1409H92.3634V97.8609H104.363C104.406 97.8553 104.448 97.8581 104.489 97.8692C104.53 97.8803 104.569 97.8994 104.602 97.9255C104.636 97.9515 104.664 97.984 104.684 98.021C104.705 98.0579 104.719 98.0987 104.723 98.1409V102.261C104.721 102.305 104.71 102.348 104.69 102.387C104.67 102.426 104.643 102.461 104.609 102.489C104.575 102.517 104.536 102.538 104.494 102.551C104.451 102.563 104.407 102.566 104.363 102.561H87.8834C87.8398 102.566 87.7955 102.563 87.7533 102.551C87.7111 102.538 87.6719 102.517 87.6381 102.489C87.6043 102.461 87.5767 102.426 87.557 102.387C87.5373 102.348 87.5258 102.305 87.5234 102.261V77.5409C87.5258 77.4969 87.5373 77.454 87.557 77.4147C87.5767 77.3754 87.6043 77.3406 87.6381 77.3125C87.6719 77.2843 87.7111 77.2634 87.7533 77.2511C87.7955 77.2388 87.8398 77.2353 87.8834 77.2409H104.003C104.047 77.2353 104.091 77.2388 104.134 77.2511C104.176 77.2634 104.215 77.2843 104.249 77.3125C104.283 77.3406 104.31 77.3754 104.33 77.4147C104.35 77.454 104.361 77.4969 104.363 77.5409L102.183 81.5409C102.179 81.583 102.165 81.6238 102.144 81.6607C102.124 81.6977 102.096 81.7302 102.062 81.7562C102.029 81.7823 101.99 81.8014 101.949 81.8125C101.908 81.8236 101.866 81.8264 101.823 81.8209L92.3634 81.8408Z" fill="#4E4D4D"/>
  <path d="M136.36 102.28C136.358 102.324 136.347 102.367 136.327 102.406C136.307 102.445 136.279 102.48 136.246 102.508C136.212 102.536 136.173 102.557 136.13 102.57C136.088 102.582 136.044 102.585 136 102.58H131.88C131.837 102.585 131.792 102.582 131.75 102.57C131.708 102.557 131.669 102.536 131.635 102.508C131.601 102.48 131.574 102.445 131.554 102.406C131.534 102.367 131.523 102.324 131.52 102.28V88.3999L125.08 101.38C125.007 101.475 124.899 101.54 124.78 101.56H120.78C120.654 101.545 120.539 101.48 120.46 101.38L113.68 87.9999V102.22C113.678 102.264 113.667 102.307 113.647 102.346C113.627 102.385 113.599 102.42 113.566 102.448C113.532 102.476 113.493 102.497 113.45 102.51C113.408 102.522 113.364 102.525 113.32 102.52H109.16C109.118 102.526 109.074 102.522 109.033 102.51C108.992 102.497 108.954 102.476 108.922 102.448C108.89 102.419 108.864 102.384 108.846 102.345C108.829 102.305 108.82 102.263 108.82 102.22V77.4999C108.823 77.4578 108.834 77.4167 108.852 77.3788C108.871 77.341 108.896 77.3071 108.928 77.2793C108.96 77.2514 108.996 77.23 109.036 77.2164C109.076 77.2028 109.118 77.1972 109.16 77.1999H113.38C113.511 77.2178 113.632 77.2816 113.72 77.3799L122.8 95.9999L131.48 77.3999C131.564 77.3056 131.676 77.2422 131.8 77.2199H136C136.087 77.2142 136.173 77.2421 136.24 77.298C136.307 77.3538 136.35 77.4332 136.36 77.5199V102.28Z" fill="#4E4D4D"/>
  <path d="M146.777 81.8408V87.5609H153.837C153.918 87.5596 153.997 87.5871 154.059 87.6384C154.121 87.6897 154.163 87.7614 154.177 87.8409L151.997 91.8409C151.992 91.9222 151.956 91.9986 151.897 92.0543C151.838 92.1101 151.759 92.141 151.677 92.1409H146.777V97.8609H158.777C158.82 97.8553 158.862 97.8581 158.903 97.8692C158.944 97.8803 158.983 97.8994 159.016 97.9255C159.05 97.9515 159.078 97.984 159.098 98.021C159.119 98.0579 159.133 98.0987 159.137 98.1409V102.261C159.135 102.305 159.124 102.348 159.104 102.387C159.084 102.426 159.057 102.461 159.023 102.489C158.989 102.517 158.95 102.538 158.908 102.551C158.865 102.563 158.821 102.566 158.777 102.561H142.298C142.254 102.566 142.21 102.563 142.167 102.551C142.125 102.538 142.086 102.517 142.052 102.489C142.018 102.461 141.991 102.426 141.971 102.387C141.951 102.348 141.94 102.305 141.938 102.261V77.5409C141.94 77.4969 141.951 77.454 141.971 77.4147C141.991 77.3754 142.018 77.3406 142.052 77.3125C142.086 77.2843 142.125 77.2634 142.167 77.2511C142.21 77.2388 142.254 77.2353 142.298 77.2409H158.477C158.521 77.2353 158.565 77.2388 158.608 77.2511C158.65 77.2634 158.689 77.2843 158.723 77.3125C158.757 77.3406 158.784 77.3754 158.804 77.4147C158.824 77.454 158.835 77.4969 158.837 77.5409L156.658 81.5409C156.653 81.583 156.639 81.6238 156.618 81.6607C156.598 81.6977 156.57 81.7302 156.536 81.7562C156.503 81.7823 156.464 81.8014 156.423 81.8125C156.382 81.8236 156.34 81.8264 156.298 81.8209L146.777 81.8408Z" fill="#4E4D4D"/>
  <path d="M184.558 102.281C184.555 102.325 184.544 102.368 184.524 102.407C184.505 102.446 184.477 102.481 184.443 102.509C184.409 102.537 184.37 102.558 184.328 102.571C184.286 102.583 184.241 102.586 184.198 102.581H179.998C179.998 102.581 179.758 102.581 179.718 102.461L168.058 85.7809V102.281C168.055 102.325 168.044 102.368 168.024 102.407C168.005 102.446 167.977 102.481 167.943 102.509C167.909 102.537 167.87 102.558 167.828 102.571C167.786 102.583 167.741 102.586 167.698 102.581H163.578C163.496 102.581 163.418 102.55 163.358 102.494C163.299 102.439 163.263 102.362 163.258 102.281V77.5409C163.263 77.4595 163.299 77.3832 163.358 77.3274C163.418 77.2716 163.496 77.2407 163.578 77.2409H167.778C167.778 77.2409 168.018 77.2409 168.058 77.3609L179.758 94.0008V77.5409C179.76 77.4969 179.772 77.454 179.791 77.4147C179.811 77.3754 179.839 77.3406 179.872 77.3125C179.906 77.2843 179.945 77.2634 179.988 77.2511C180.03 77.2388 180.074 77.2353 180.118 77.2409H184.118C184.161 77.2353 184.206 77.2388 184.248 77.2511C184.29 77.2634 184.329 77.2843 184.363 77.3125C184.397 77.3406 184.425 77.3754 184.444 77.4147C184.464 77.454 184.475 77.4969 184.478 77.5409L184.558 102.281Z" fill="#4E4D4D"/>
  <path d="M200.997 81.3009C200.993 81.343 200.979 81.3838 200.958 81.4207C200.938 81.4577 200.91 81.4902 200.876 81.5162C200.843 81.5423 200.804 81.5614 200.763 81.5725C200.722 81.5836 200.68 81.5864 200.637 81.5809H197.997V102.281C197.995 102.325 197.984 102.368 197.964 102.407C197.944 102.446 197.917 102.481 197.883 102.509C197.849 102.537 197.81 102.558 197.768 102.571C197.725 102.583 197.681 102.586 197.637 102.581H193.637C193.594 102.586 193.55 102.583 193.507 102.571C193.465 102.558 193.426 102.537 193.392 102.509C193.358 102.481 193.331 102.446 193.311 102.407C193.291 102.368 193.28 102.325 193.277 102.281V81.5809H188.298C188.255 81.5864 188.213 81.5836 188.172 81.5725C188.131 81.5614 188.092 81.5423 188.059 81.5162C188.025 81.4902 187.997 81.4577 187.977 81.4207C187.956 81.3838 187.942 81.343 187.938 81.3009V77.5409C187.94 77.4969 187.951 77.454 187.971 77.4147C187.991 77.3754 188.018 77.3406 188.052 77.3125C188.086 77.2843 188.125 77.2634 188.167 77.2511C188.21 77.2388 188.254 77.2353 188.298 77.2409H202.798C202.841 77.2353 202.885 77.2388 202.928 77.2511C202.97 77.2634 203.009 77.2843 203.043 77.3125C203.077 77.3406 203.104 77.3754 203.124 77.4147C203.144 77.454 203.155 77.4969 203.158 77.5409L200.997 81.3009Z" fill="#4E4D4D"/>
  <path d="M19.7997 84.9408C19.7997 92.4008 11.7997 92.4608 11.2197 92.4608H7.45969V102.461C7.45715 102.5 7.44684 102.539 7.42937 102.574C7.41189 102.61 7.38759 102.641 7.35786 102.667C7.32813 102.693 7.29355 102.713 7.25611 102.726C7.21867 102.738 7.1791 102.743 7.13969 102.741H2.99969C2.92131 102.741 2.84544 102.713 2.78646 102.662C2.72747 102.61 2.68948 102.539 2.67969 102.461V77.6008C2.68478 77.5194 2.72073 77.4431 2.7802 77.3873C2.83967 77.3316 2.91817 77.3006 2.99969 77.3008H11.2197C12.2397 77.3008 19.7997 77.4408 19.7997 84.9408ZM14.9797 84.9408C14.9797 82.1208 11.7997 82.0008 11.2197 82.0008H7.45969V87.8008H11.2197C11.8797 87.8008 14.9797 87.7208 14.9797 84.9408Z" fill="#4E4D4D"/>
  <path d="M59.7 26.1599C59.7682 25.6967 59.7285 25.2241 59.584 24.7788C59.4395 24.3335 59.1941 23.9275 58.867 23.5927C58.5399 23.2578 58.1398 23.003 57.698 22.8481C57.2562 22.6933 56.7846 22.6425 56.32 22.6999C55.3258 22.8264 54.3709 23.1673 53.5214 23.6991C52.6719 24.2309 51.9481 24.9408 51.4 25.7799C51.4 23.9599 50.4 22.4399 48.7 22.4399C46.52 22.4399 44.94 24.2199 42.82 26.9199L44.3 22.3999C44.325 22.316 44.33 22.2275 44.3146 22.1413C44.2992 22.0552 44.2638 21.9739 44.2113 21.9039C44.1588 21.8339 44.0906 21.7771 44.0123 21.7382C43.9339 21.6993 43.8475 21.6794 43.76 21.6799C43.6513 21.6767 43.545 21.7121 43.46 21.7799L42.14 22.6999C39.94 24.2999 37.18 26.2599 34.78 26.2599C34.3941 26.2865 34.007 26.2274 33.6467 26.0867C33.2864 25.946 32.9617 25.7273 32.6959 25.4462C32.4301 25.1651 32.2299 24.8287 32.1096 24.4611C31.9892 24.0934 31.9518 23.7037 32 23.3199C32.0054 23.2447 31.9956 23.1692 31.9711 23.0979C31.9467 23.0266 31.9081 22.961 31.8577 22.905C31.8072 22.8489 31.746 22.8037 31.6777 22.7719C31.6094 22.7401 31.5353 22.7224 31.46 22.7199C31.3265 22.7261 31.1989 22.7767 31.0975 22.8637C30.9961 22.9506 30.9265 23.0689 30.9 23.1999C30.8169 23.7514 30.8617 24.3146 31.0308 24.846C31.2 25.3774 31.489 25.8629 31.8755 26.2649C32.2621 26.6669 32.7359 26.9747 33.2602 27.1646C33.7846 27.3544 34.3457 27.4213 34.9 27.3599C37.96 27.3599 40.66 25.2399 42.9 23.6599L40.9 29.8999C40.9 29.9999 38.58 33.5199 38.42 33.7199C36.12 36.7399 34.74 39.0199 34.7 40.4999C34.7 41.3999 35.12 42.1399 36.1 42.1399C37.82 42.1399 38.54 40.7199 39.92 36.4199L41.92 30.4199C43.92 27.5399 46.72 23.5599 48.9 23.5599C50.08 23.5599 50.56 24.6199 50.56 25.9599C50.5338 26.7348 50.3992 27.5023 50.16 28.2399C48.96 32.2399 47.4 36.9999 45.92 41.1999C45.8908 41.2822 45.8821 41.3704 45.8945 41.4568C45.907 41.5432 45.9402 41.6254 45.9913 41.6962C46.0424 41.7669 46.1099 41.8243 46.1881 41.8633C46.2662 41.9022 46.3527 41.9216 46.44 41.9199C46.5542 41.9254 46.667 41.8931 46.761 41.828C46.855 41.7629 46.9249 41.6687 46.96 41.5599C49.34 34.7199 49.66 33.7199 51.4 27.9599C52.64 25.9599 54.66 23.7399 56.58 23.7399C58.12 23.7399 58.94 24.4399 58.94 26.1799C58.6841 28.4987 58.0561 30.761 57.08 32.8799C55.96 35.9999 53.48 42.5799 53.48 44.4599C53.456 44.8451 53.5149 45.2311 53.6527 45.5916C53.7905 45.9522 54.004 46.279 54.2789 46.5501C54.5537 46.8211 54.8835 47.0301 55.2459 47.1629C55.6084 47.2957 55.9951 47.3492 56.38 47.3199C56.4554 47.3349 56.5332 47.333 56.6078 47.3143C56.6824 47.2956 56.7519 47.2606 56.8113 47.2119C56.8708 47.1631 56.9187 47.1017 56.9515 47.0322C56.9844 46.9627 57.0015 46.8868 57.0015 46.8099C57.0015 46.733 56.9844 46.6571 56.9515 46.5875C56.9187 46.518 56.8708 46.4567 56.8113 46.4079C56.7519 46.3591 56.6824 46.3241 56.6078 46.3055C56.5332 46.2868 56.4554 46.2849 56.38 46.2999C56.1345 46.3144 55.8888 46.2768 55.659 46.1895C55.4291 46.1022 55.2204 45.9672 55.0466 45.7933C54.8727 45.6194 54.7377 45.4107 54.6503 45.1809C54.563 44.9511 54.5254 44.7053 54.54 44.4599C55.3958 40.6364 56.5664 36.8903 58.04 33.2599C58.9996 31.007 59.5612 28.6047 59.7 26.1599ZM38.66 35.9999C37.5 39.5999 36.96 40.9399 35.88 40.9399C35.7 40.9399 35.58 40.7799 35.58 40.5199C35.58 38.9399 36.74 37.8399 39.12 34.2799C39.2007 34.19 39.268 34.089 39.32 33.9799L38.66 35.9999Z" fill="#5CB130"/>
  <path d="M80.5425 35.8193H80.3025C80.1954 35.8222 80.0913 35.8557 80.0027 35.916C79.914 35.9763 79.8446 36.0607 79.8025 36.1593C78.2025 39.6193 77.2625 40.9993 76.0225 40.9993C75.4825 40.9993 75.2425 40.6593 75.2425 39.8993C75.2425 37.8993 77.2425 34.4593 77.2425 32.1193C77.2934 31.7845 77.2648 31.4425 77.1592 31.1209C77.0536 30.7992 76.8738 30.5068 76.6344 30.2674C76.395 30.028 76.1026 29.8482 75.7809 29.7426C75.4592 29.6369 75.1172 29.6084 74.7825 29.6593C74.3111 29.6998 73.8526 29.8339 73.4336 30.0536C73.0147 30.2734 72.6437 30.5745 72.3425 30.9393L72.5625 30.4193C72.6129 30.2787 72.6054 30.1239 72.5416 29.9889C72.4779 29.8538 72.3631 29.7497 72.2225 29.6993C72.0819 29.6489 71.9271 29.6564 71.7921 29.7202C71.6571 29.7839 71.5529 29.8987 71.5025 30.0393C70.9425 31.6193 70.1825 33.7793 69.3625 36.0393V36.1593C68.4425 38.3193 67.5425 39.3193 66.4425 39.3193C66.1923 39.3423 65.9402 39.3053 65.7072 39.2114C65.4741 39.1175 65.2668 38.9694 65.1025 38.7793C66.2461 36.8762 66.9308 34.7329 67.1025 32.5193C67.1364 32.1575 67.0934 31.7926 66.9765 31.4485C66.8595 31.1044 66.6712 30.7889 66.4239 30.5227C66.1765 30.2565 65.8757 30.0455 65.5411 29.9036C65.2066 29.7617 64.8458 29.6921 64.4825 29.6993C63.6786 29.7965 62.914 30.1023 62.2649 30.5865C61.6158 31.0707 61.1048 31.7164 60.7825 32.4593C59.4211 34.548 58.6537 36.9677 58.5625 39.4593C58.5625 40.9793 59.1425 42.0993 60.8425 42.0993C61.5721 41.9818 62.2678 41.7084 62.8822 41.2977C63.4965 40.887 64.0151 40.3486 64.4025 39.7193C64.9645 40.1834 65.6737 40.4316 66.4025 40.4193C66.981 40.4227 67.5466 40.2482 68.0225 39.9193L67.5025 41.3593C67.4742 41.4286 67.4606 41.5031 67.4626 41.5779C67.4646 41.6528 67.4821 41.7264 67.5141 41.7941C67.5461 41.8618 67.5918 41.9221 67.6483 41.9712C67.7048 42.0203 67.771 42.0571 67.8425 42.0793C67.9831 42.1183 68.1332 42.1029 68.2629 42.0362C68.3927 41.9695 68.4925 41.8563 68.5425 41.7193L70.3825 36.5193C71.2225 34.2993 73.2025 30.7593 74.8025 30.7593C74.9865 30.7366 75.1733 30.7562 75.3486 30.8165C75.5239 30.8769 75.6832 30.9764 75.8143 31.1075C75.9454 31.2386 76.0449 31.3978 76.1053 31.5732C76.1656 31.7485 76.1852 31.9353 76.1625 32.1193C76.1625 34.3993 74.1625 37.4393 74.1625 39.8993C74.1625 41.1793 74.8025 42.0993 76.0425 42.0993C77.8425 42.0993 79.0625 40.5593 80.8425 36.5993C80.8605 36.5203 80.8605 36.4383 80.8425 36.3593C80.8441 36.2509 80.8172 36.144 80.7645 36.0493C80.7119 35.9545 80.6353 35.8752 80.5425 35.8193ZM64.2825 35.8193C64.1569 35.8121 64.033 35.8508 63.9337 35.928C63.8344 36.0052 63.7665 36.1158 63.7425 36.2393C63.5134 37.0501 63.5134 37.9085 63.7425 38.7193C62.8825 39.9593 61.7425 40.9993 60.8225 40.9993C59.9025 40.9993 59.6625 40.3393 59.6625 39.3993C59.7585 37.1403 60.4483 34.9466 61.6625 33.0393C62.4225 31.7193 63.3625 30.7993 64.3625 30.7993C64.5789 30.7919 64.7944 30.8315 64.994 30.9153C65.1937 30.9992 65.3729 31.1252 65.5192 31.2848C65.6655 31.4445 65.7755 31.6339 65.8417 31.8401C65.9079 32.0462 65.9286 32.2643 65.9025 32.4793C65.7973 34.1022 65.3473 35.684 64.5825 37.1193C64.6071 36.9165 64.6472 36.7159 64.7025 36.5193C64.7338 36.4435 64.7473 36.3615 64.7422 36.2797C64.7371 36.1978 64.7134 36.1182 64.6729 36.0469C64.6324 35.9756 64.5762 35.9144 64.5086 35.868C64.4409 35.8217 64.3636 35.7913 64.2825 35.7793V35.8193Z" fill="#5CB130"/>
  <defs>
    <linearGradient id="paint0_linear" x1="124.442" y1="31.98" x2="155.942" y2="31.98" gradientUnits="userSpaceOnUse">
      <stop stop-color="#4C9033"/>
      <stop offset="0.5" stop-color="#5CB130"/>
      <stop offset="1" stop-color="#4C9033"/>
    </linearGradient>
  </defs>
</svg>
